<svg width="42" height="40" viewBox="0 0 42 40" fill="none" xmlns="http://www.w3.org/2000/svg">
<path d="M3.27552 11.6602L19.4685 19.107C19.8901 19.2984 20.4529 19.3984 21.0098 19.3984C21.5668 19.3984 22.1296 19.2984 22.5504 19.107L38.7434 11.6602C39.5949 11.2695 39.5949 10.6305 38.7434 10.2383L22.5504 2.79141C22.1296 2.6 21.566 2.5 21.0098 2.5C20.4537 2.5 19.8901 2.6 19.4685 2.79141L3.27552 10.2383C2.42403 10.6305 2.42403 11.268 3.27552 11.6602Z" fill="black"/>
<path d="M38.7433 19.289C38.7433 19.289 35.786 17.9312 35.3939 17.7484C35.0018 17.5656 34.896 17.5758 34.4842 17.7578C34.0724 17.9398 22.5405 23.2445 22.5405 23.2445C22.0544 23.4444 21.5293 23.544 20.9999 23.5367C20.4446 23.5367 19.8802 23.4359 19.4594 23.2445C19.4594 23.2445 8.23339 18.0883 7.70675 17.8398C7.13663 17.5781 6.97257 17.5781 6.45331 17.8125L3.25409 19.2797C2.40261 19.6703 2.40261 20.3101 3.25409 20.7015L19.4495 28.1484C19.8703 28.3398 20.4339 28.4398 20.9901 28.4398C21.5462 28.4398 22.1098 28.3398 22.5314 28.1484L38.7244 20.7031C39.5948 20.3187 39.5947 19.6812 38.7433 19.289Z" fill="black"/>
<path d="M38.7433 28.3399C38.7433 28.3399 35.7861 26.982 35.394 26.7969C35.0018 26.6117 34.896 26.6242 34.4842 26.8063C34.0724 26.9883 22.5503 32.3047 22.5503 32.3047C22.0641 32.5043 21.5391 32.6036 21.0098 32.5961C20.4544 32.5961 19.89 32.4961 19.4684 32.3047C19.4684 32.3047 8.24243 27.1485 7.71661 26.9C7.14239 26.6352 6.97833 26.6352 6.46235 26.8727L3.26313 28.3399C2.41083 28.7305 2.41083 29.3695 3.26313 29.7617L19.4561 37.2086C19.8769 37.4086 20.4405 37.5 20.9966 37.5C21.5528 37.5 22.1164 37.4 22.5372 37.2086L38.7334 29.7656C39.5948 29.3695 39.5948 28.732 38.7433 28.3399Z" fill="black"/>
</svg>
